# xmcd
#
# Track frame offsets:
#	150
#	21985
#	40127
#	62215
#	81230
#	99742
#	125054
#	146434
#	161619
#	179259
#	200397
#	223454
#	244437
#	264855
#	287379
#	307249
#	324702
#	345026
#
# Disc length: 4796 seconds
#
# Revision: 0
# Processed by: cddbd v1.5.2PL0 Copyright (c) Steve Scherf et al.
# Submitted via: EasyCDDAExtractor 9.0.0.1
#
DISCID=1312ba12
DTITLE=Various Artist - ENIGMA MANIA 2 CD 01
DYEAR=2006
DGENRE=Ethnic
TTITLE0=Enigma - Beyond The Invisible
TTITLE1=Lesiem - Temperantia
TTITLE2=Era - Sentence
TTITLE3=Deep Forest - Marta`S Song
TTITLE4=Gregorian - Join Me
TTITLE5=Wise Hand - Safi
TTITLE6=Amethystium - Opaque
TTITLE7=Mythos - Vision I
TTITLE8=B Tribe - Love (Feat. Luna)
TTITLE9=Sanja Llic and Balkanika - Korana
TTITLE10=Oliver Shanti - Onon Mwenz
TTITLE11=Enigma - The Eyes Of Truth
TTITLE12=Karunesh - Call Of The Tribes
TTITLE13=Era - Mother
TTITLE14=Lesiem - Caritas
TTITLE15=Gregorian - Moment Of Pease
TTITLE16=Out Of Phase - Desire
TTITLE17=Enigma - Love Me
EXTD=ENIGMA MANIA 2 CD 01\n
EXTT0=
EXTT1=
EXTT2=
EXTT3=
EXTT4=
EXTT5=
EXTT6=
EXTT7=
EXTT8=
EXTT9=
EXTT10=
EXTT11=
EXTT12=
EXTT13=
EXTT14=
EXTT15=
EXTT16=
EXTT17=
PLAYORDER=
